<svg id="netpromotion-logo" xmlns="http://www.w3.org/2000/svg" xmlns:xlink="http://www.w3.org/1999/xlink" viewBox="0 0 636 66.08">
  <defs>
    <style>
      .cls-1, .cls-2 {
        fill: none;
      }

      .cls-2 {
        clip-rule: evenodd;
      }

      .cls-3 {
        isolation: isolate;
      }

      .cls-4 {
        clip-path: url(#clip-path);
      }

      .cls-5 {
        clip-path: url(#clip-path-2);
      }

      .cls-7 {
        fill: #2196f3;
      }

      .cls-7, .cls-8 {
        fill-rule: evenodd;
      }

      .cls-8 {
        fill: #65b6f5;
      }
    </style>
    <clipPath id="clip-path" transform="translate(-613.54 -362.45)">
      <rect class="cls-1" x="1230.54" y="384.45" width="14" height="14"/>
    </clipPath>
    <clipPath id="clip-path-2" transform="translate(-613.54 -362.45)">
      <path class="cls-2" d="M1231.1,388.67a7,7,0,0,1,6.46-4.22,6.78,6.78,0,0,1,2.7.54,6.89,6.89,0,0,1,3.72,3.68,6.66,6.66,0,0,1,.56,2.75,6.77,6.77,0,0,1-.56,2.8,7.22,7.22,0,0,1-1.5,2.24,6.9,6.9,0,0,1-4.92,2,7.07,7.07,0,0,1-2.71-.52,6.87,6.87,0,0,1-2.23-1.47,7.1,7.1,0,0,1-1.52-2.24,6.93,6.93,0,0,1-.56-2.8A6.83,6.83,0,0,1,1231.1,388.67Zm1.15,5.14a5.81,5.81,0,0,0,1.21,1.91,5.7,5.7,0,0,0,1.82,1.26,5.56,5.56,0,0,0,2.28.46,5.5,5.5,0,0,0,2.26-.46,5.89,5.89,0,0,0,1.81-1.26,6,6,0,0,0,1.21-1.91,6.43,6.43,0,0,0,.43-2.39,6.28,6.28,0,0,0-.43-2.34,5.72,5.72,0,0,0-3-3.14,5.5,5.5,0,0,0-2.26-.46,5.56,5.56,0,0,0-2.28.46,5.69,5.69,0,0,0-3,3.14,6.09,6.09,0,0,0-.44,2.34A6.24,6.24,0,0,0,1232.25,393.81Zm5.74-6.45a3.29,3.29,0,0,1,2.15.58,2.16,2.16,0,0,1,.7,1.76,2,2,0,0,1-.62,1.62,2.7,2.7,0,0,1-1.52.61l2.33,3.62h-1.37l-2.21-3.53h-1.34v3.53h-1.27v-8.19Zm-.56,3.63q.43,0,.81,0a2,2,0,0,0,.68-.16,1,1,0,0,0,.47-.4,1.36,1.36,0,0,0,.18-.76,1.23,1.23,0,0,0-.15-.65,1.18,1.18,0,0,0-.42-.38,1.91,1.91,0,0,0-.57-.18,4.68,4.68,0,0,0-.64,0h-1.68V391Z"/>
    </clipPath>
  </defs>
  <title>Logo | Netpromotion group s.r.o.</title>
  <g id="path-14-rcopy" class="cls-3">
    <g class="cls-4">
      <g class="cls-5">
        <g class="cls-4">
          <rect class="cls-7" x="612" y="17" width="24" height="24"/>
        </g>
      </g>
    </g>
  </g>
  <path id="path-13N" class="cls-7" d="M1208,428.45h6.61a1,1,0,0,0,.89-.88V385.33a1,1,0,0,0-.89-.88h-8.35a1,1,0,0,0-.9.88V412.1l-28.1-27.65h-6.86a1,1,0,0,0-.9.88v42.24a1,1,0,0,0,.9.88h8.35a1,1,0,0,0,.89-.88V400.9l28,27.55Z" transform="translate(-613.54 -362.45)"/>
  <path id="path-12O" class="cls-7" d="M1160.54,406.45c0,13.39-11.17,22.08-24.5,22.08s-24.5-8.69-24.5-22.08c0-13.17,11.18-22.08,24.5-22.08s24.5,8.91,24.5,22.08m-38.93,0c0,8.62,6.59,14,14.43,14s14.44-5.34,14.44-14-6.59-14-14.44-14-14.43,5.34-14.43,14" transform="translate(-613.54 -362.45)"/>
  <rect id="path-11I" class="cls-7" x="478" y="22" width="10" height="44" rx="0.88"/>
  <path id="path-10T" class="cls-7" d="M1039.58,392.81a1.25,1.25,0,0,1-1-1v-6.31a1.25,1.25,0,0,1,1-1h41.93a1.25,1.25,0,0,1,1,1v6.31a1.25,1.25,0,0,1-1,1h-16v34.76a1,1,0,0,1-.88.88h-8.27a1,1,0,0,1-.89-.88V392.81Z" transform="translate(-613.54 -362.45)"/>
  <path id="path-9O" class="cls-7" d="M1033.54,406.45c0,13.39-11.17,22.08-24.5,22.08s-24.5-8.69-24.5-22.08c0-13.17,11.18-22.08,24.5-22.08s24.5,8.91,24.5,22.08m-38.93,0c0,8.62,6.59,14,14.43,14s14.44-5.34,14.44-14-6.59-14-14.44-14-14.43,5.34-14.43,14" transform="translate(-613.54 -362.45)"/>
  <path id="path-8m2" class="cls-7" d="M960.54,371a8.5,8.5,0,1,0,8.5-8.5,8.5,8.5,0,0,0-8.5,8.5" transform="translate(-613.54 -362.45)"/>
  <path id="path-8m1" class="cls-7" d="M963.42,384.45h9.16a1,1,0,0,1,.88.88v42.24a1,1,0,0,1-.88.88h-8.25a1,1,0,0,1-.89-.88v-29l-8.9,8.87-7.08-7.05Z" transform="translate(-613.54 -362.45)"/>
  <path id="path-7m2" class="cls-8" d="M934.54,371a8.5,8.5,0,1,1-8.5-8.5,8.49,8.49,0,0,1,8.5,8.5" transform="translate(-613.54 -362.45)"/>
  <path id="path-7m1" class="cls-8" d="M932.25,384.45H923.4a.94.94,0,0,0-.86.88v42.24a.94.94,0,0,0,.86.88h8a.93.93,0,0,0,.85-.88v-29l15.46,15.93,6.85-7.06Z" transform="translate(-613.54 -362.45)"/>
  <path id="path-6O" class="cls-7" d="M910.54,406.45c0,13.39-11.17,22.08-24.5,22.08s-24.5-8.69-24.5-22.08c0-13.17,11.18-22.08,24.5-22.08s24.5,8.91,24.5,22.08m-38.93,0c0,8.62,6.59,14,14.43,14s14.44-5.34,14.44-14-6.59-14-14.44-14-14.43,5.34-14.43,14" transform="translate(-613.54 -362.45)"/>
  <path id="path-5R" class="cls-7" d="M815.54,385.33a.94.94,0,0,1,.86-.88h19.94c10.47,0,17.93,5.8,17.93,15.4,0,6.68-3.95,11.15-9.68,13.2a12.79,12.79,0,0,1-3.51.67l13.09,13.45a.94.94,0,0,1,.37.77c0,.29-.2.51-.63.51H845a2.23,2.23,0,0,1-1.49-.73l-12.37-13.05H825.3v12.9a.94.94,0,0,1-.86.88h-8a.94.94,0,0,1-.86-.88Zm9.76,7.48v13.93h10.4c5.37,0,8.82-2.56,8.82-6.89s-3.45-7-8.82-7Z" transform="translate(-613.54 -362.45)"/>
  <path id="path-4P" class="cls-7" d="M769.4,428.45a.94.94,0,0,1-.86-.88V385.33a.94.94,0,0,1,.86-.88h18.32c10.38,0,17.82,6.38,17.82,16.5s-7.73,16.21-17.82,16.21h-9.44v10.41a.94.94,0,0,1-.86.88Zm8.88-35.64v16.43h8.65c5.66,0,8.88-3.38,8.88-8.29s-3.58-8.14-8.88-8.14Z" transform="translate(-613.54 -362.45)"/>
  <path id="path-3T" class="cls-7" d="M716.58,392.81a1.25,1.25,0,0,1-1-1v-6.31a1.25,1.25,0,0,1,1-1h41.93a1.25,1.25,0,0,1,1,1v6.31a1.25,1.25,0,0,1-1,1h-16v34.76a1,1,0,0,1-.88.88h-8.27a1,1,0,0,1-.89-.88V392.81Z" transform="translate(-613.54 -362.45)"/>
  <path id="path-2E" class="cls-7" d="M679.41,410.63v9.46h25.12a1.24,1.24,0,0,1,1,1v6.31a1.24,1.24,0,0,1-1,1H670.41a1,1,0,0,1-.87-.88V385.33a1,1,0,0,1,.87-.88h34.12a1.24,1.24,0,0,1,1,1v6.31a1.24,1.24,0,0,1-1,1H679.41v9.46h25.12a1.24,1.24,0,0,1,1,1v6.31a1.24,1.24,0,0,1-1,1Z" transform="translate(-613.54 -362.45)"/>
  <path id="path-1N" class="cls-7" d="M652,428.45h6.61a1,1,0,0,0,.89-.88V385.33a1,1,0,0,0-.89-.88H650.3a1,1,0,0,0-.9.88V412.1l-28.1-27.65h-6.86a1,1,0,0,0-.9.88v42.24a1,1,0,0,0,.9.88h8.35a1,1,0,0,0,.89-.88V400.9l28,27.55Z" transform="translate(-613.54 -362.45)"/>
</svg>
