<svg enable-background="new 0 0 100 23" version="1.1" viewBox="0 0 100 23" xml:space="preserve" xmlns="http://www.w3.org/2000/svg">
    <g fill="#038C3D">
        <polygon points="22.595 3.013 20.17 3.013 20.17 14.779 26.739 14.779 26.739 12.76 22.595 12.76"/>
            <path d="m35.286 10.491c0-2.623-1.607-4.354-3.929-4.354-2.534 0-3.963 2.068-3.963 4.464 0 2.211 1.25 4.356 4.286 4.356 1 0 2.161-0.252 3.214-0.965l-0.555-1.535c-0.821 0.43-1.447 0.588-2.268 0.588-1.126 0-2.196-0.678-2.25-1.821h5.464v-0.733zm-5.517-0.928c0-0.768 0.554-1.66 1.518-1.66 1.038 0 1.482 0.854 1.536 1.66h-3.054z"/>
            <polygon points="34.322 2.671 31.66 2.671 30.181 5.298 32.055 5.298"/>
        <path d="m67.26 6.133c-1.127 0-2.072 0.41-2.967 1.091l-0.25-0.892h-2.053v8.447h2.428v-5.859c0.658-0.447 1.322-0.732 1.982-0.732 1 0 1.178 0.892 1.178 1.696v4.895h2.412v-5.589c2e-3 -2.306-1.427-3.057-2.73-3.057z"/>
        <path d="m57.57 7.207-0.248-0.875h-2.051v8.447h2.426v-5.894c0.604-0.5 1.035-0.661 1.535-0.661 0.25 0 0.662 0.054 1.072 0.303l0.873-1.998c-0.375-0.267-0.873-0.391-1.301-0.391-0.86-5e-3 -1.538 0.39-2.306 1.069z"/>
        <polygon points="44.725 6.333 41.973 6.333 39.386 9.169 39.367 9.169 39.367 2.138 36.94 2.138 36.94 14.779 39.367 14.779 39.367 10.991 39.386 10.991 42.19 14.779 44.974 14.779 41.333 10.025"/>
            <polygon points="52.432 2.671 49.771 2.671 48.273 5.298 50.165 5.298"/>
            <path d="m53.021 12.865v-3.589c0-2.233-1.25-3.143-3.5-3.143-1.144 0-2.25 0.178-3.41 0.928l0.732 1.465c0.572-0.321 1.305-0.572 2.179-0.572 0.821 0 1.535 0.376 1.535 1.266v0.143l-1.426 0.053c-2.143 0.071-3.59 1-3.59 2.788 0 1.676 1.213 2.748 2.822 2.748 1.088 0 1.838-0.41 2.41-0.91l0.358 0.73h2.051c-0.143-0.424-0.161-1.086-0.161-1.907zm-2.465-0.176c-0.249 0.176-0.676 0.391-1.301 0.391-0.821 0-1.287-0.41-1.287-1.053 0-0.644 0.483-1.002 1.518-1.037l1.07-0.038v1.737z"/>
        <path d="m79.037 12.865v-3.589c0-2.233-1.252-3.143-3.498-3.143-1.143 0-2.252 0.178-3.41 0.928l0.732 1.465c0.568-0.321 1.301-0.572 2.16-0.572 0.84 0 1.555 0.376 1.555 1.266v0.143l-1.432 0.053c-2.139 0.071-3.584 1-3.584 2.788 0 1.676 1.213 2.748 2.818 2.748 1.088 0 1.838-0.41 2.393-0.91l0.373 0.73h2.033c-0.12-0.424-0.14-1.086-0.14-1.907zm-2.482-0.176c-0.23 0.176-0.662 0.391-1.303 0.391-0.82 0-1.285-0.41-1.285-1.053 0-0.644 0.5-1.002 1.535-1.037l1.053-0.038v1.737z"/>
    </g>
    <g fill="#F9B109">
        <path d="m82.311 14.932c-0.746 0-1.34-0.588-1.34-1.373 0-0.768 0.59-1.355 1.34-1.355 0.734 0 1.338 0.588 1.338 1.355-1e-3 0.783-0.604 1.373-1.338 1.373"/>
        <path d="m89.002 14.861c-2.799 0-4.23-1.984-4.23-4.374 0-2.661 2.033-4.445 4.445-4.445 1.268 0 2.033 0.303 2.48 0.608l-0.035 1.926c-0.607-0.483-1.252-0.714-2.088-0.714-1.338 0-2.393 1.035-2.393 2.517 0 1.305 0.697 2.551 2.357 2.551 0.768 0 1.357-0.234 1.963-0.57l0.59 1.555c-0.696 0.497-1.894 0.946-3.089 0.946"/>
        <polygon points="92.699 14.682 96.484 8.04 93.502 8.093 93.004 6.238 100 6.238 96.287 12.859 99.965 12.807 99.965 14.682"/>
    </g>
    <path d="m7.271 1.741c-1.664-1.667-4.361-1.667-6.024 0-1.663 1.663-1.663 4.36 0 6.023l1.132 1.133 6.021-6.024-1.129-1.132z" fill="#76B72E"/>
    <path d="m15.56 7.761c1.664-1.663 1.664-4.361 0-6.021-1.663-1.667-4.358-1.667-6.021 0l-1.135 1.129 6.024 6.024 1.132-1.132z" fill="#F9B109"/>
    <path d="m9.54 16.051c1.663 1.664 4.357 1.664 6.021 0 1.663-1.666 1.663-4.358 0-6.021l-1.132-1.132-6.025 6.022 1.136 1.131z" fill="#76B72E"/>
    <path d="m1.251 10.025c-1.663 1.665-1.663 4.359 0 6.021 1.663 1.664 4.36 1.664 6.024 0l1.129-1.131-6.021-6.024-1.132 1.134z" fill="#F9B109"/>
    <polygon points="8.404 2.869 2.379 8.894 8.404 14.916 14.428 8.894" fill="#038C3D"/>
	<path d="m77.561 22.465h1.617v-0.453h-1.086v-0.799h0.934v-0.449h-0.934v-0.764h0.934l0.146-0.449h-1.611v2.914zm-2.61-3.084h0.424l0.443-0.652h-0.414l-0.24 0.352-0.242-0.352h-0.42l0.449 0.652zm-0.062 1.512v-0.914h0.242c0.162 0 0.26 0.039 0.33 0.086 0.127 0.072 0.195 0.211 0.195 0.365 0 0.182-0.08 0.314-0.205 0.387-0.088 0.049-0.186 0.074-0.322 0.074h-0.24v2e-3zm-0.532 1.572h0.531v-1.139h0.252c0.07 0.018 0.176 0.137 0.32 0.398l0.422 0.74h0.609l-0.484-0.852c-0.156-0.266-0.277-0.424-0.365-0.473v-0.01c0.336-0.107 0.57-0.365 0.57-0.754 0-0.295-0.123-0.566-0.432-0.715-0.154-0.072-0.35-0.117-0.625-0.117h-0.799v2.922zm-2.58-1.699v-0.779h0.25c0.32 0 0.457 0.172 0.457 0.391 0 0.227-0.156 0.389-0.451 0.389h-0.256zm0 1.263v-0.824h0.398c0.297 0 0.486 0.15 0.486 0.396 0 0.299-0.189 0.426-0.547 0.426h-0.338v2e-3zm-0.529 0.436h0.934c0.68 0 1.023-0.412 1.023-0.863 0-0.34-0.207-0.619-0.549-0.705v-0.01c0.232-0.115 0.355-0.35 0.355-0.6 0-0.379-0.285-0.738-0.906-0.738h-0.855v2.916h-2e-3zm-2.652-0.404c-0.539 0-0.906-0.385-0.906-1.045 0-0.664 0.367-1.049 0.906-1.049 0.553 0 0.904 0.402 0.904 1.049-4e-3 0.66-0.373 1.045-0.904 1.045m0 0.449c0.85 0 1.469-0.6 1.469-1.494 0-0.881-0.607-1.498-1.469-1.498-0.863 0-1.471 0.609-1.471 1.498-4e-3 0.896 0.609 1.494 1.471 1.494m-4.496-0.498v-2.014h0.326c0.715 0 1.074 0.385 1.074 0.996 0 0.549-0.293 1.018-1.064 1.018h-0.336zm-0.532 0.453h0.857c1.016 0 1.645-0.594 1.645-1.479 0-0.861-0.564-1.441-1.596-1.441h-0.906v2.92zm-3.394 0h0.529v-2.92h-0.529v2.92zm-2.6 0h1.568v-0.453h-1.037v-2.463h-0.531v2.916zm-1.84 0h0.533v-2.92h-0.533v2.92zm-2.414 0h0.529v-2.467h0.779l0.146-0.449h-2.311v0.449h0.85v2.467h7e-3zm-2.414-3.084h0.403l0.424-0.652h-0.573l-0.254 0.652zm0.017 3.084h0.532v-2.92h-0.532v2.92zm-1.245-0.604c-0.208 0.117-0.43 0.203-0.718 0.203-0.599 0-0.969-0.424-0.969-1.037 0-0.572 0.341-1.059 0.987-1.059 0.285 0 0.527 0.07 0.753 0.189v-0.496c-0.181-0.078-0.448-0.141-0.768-0.141-0.94 0-1.542 0.672-1.542 1.518 0 0.854 0.519 1.471 1.476 1.471 0.294 0 0.603-0.053 0.925-0.23l-0.144-0.418zm-6.386 0.604h1.616v-0.453h-1.085v-0.799h0.934v-0.449h-0.934v-0.764h0.934l0.146-0.449h-1.613v2.914h2e-3zm-3.1-0.207c0.223 0.154 0.54 0.252 0.88 0.252 0.599 0 1.041-0.322 1.041-0.836 0-0.926-1.263-0.854-1.263-1.391 0-0.234 0.196-0.314 0.398-0.314 0.231 0 0.465 0.066 0.696 0.186v-0.486c-0.16-0.078-0.412-0.143-0.714-0.143-0.608 0-0.949 0.375-0.949 0.805 0 0.891 1.263 0.818 1.263 1.389 0 0.252-0.244 0.35-0.486 0.35-0.267 0-0.486-0.094-0.661-0.215l-0.205 0.403zm-4.162 0.207h1.616v-0.453h-1.085v-0.799h0.934v-0.449h-0.934v-0.764h0.934l0.146-0.449h-1.613v2.914h2e-3zm-2.413 0h0.53v-2.467h0.78l0.145-0.449h-2.306v0.449h0.851v2.467zm-3.659-0.207c0.223 0.154 0.541 0.252 0.881 0.252 0.599 0 1.041-0.322 1.041-0.836 0-0.926-1.264-0.854-1.264-1.391 0-0.234 0.196-0.314 0.398-0.314 0.231 0 0.465 0.066 0.696 0.186v-0.486c-0.16-0.078-0.412-0.143-0.714-0.143-0.608 0-0.949 0.375-0.949 0.805 0 0.891 1.262 0.818 1.262 1.389 0 0.252-0.243 0.35-0.486 0.35-0.267 0-0.486-0.094-0.661-0.215l-0.204 0.403zm-2.377 0.207h0.537v-1.152l0.996-1.768h-0.575l-0.678 1.289h-0.01l-0.682-1.289h-0.584l0.996 1.764v1.156zm-3.163-1.699v-0.779h0.249c0.32 0 0.457 0.172 0.457 0.391 0 0.227-0.154 0.389-0.451 0.389h-0.255zm0 1.263v-0.824h0.397c0.296 0 0.487 0.15 0.487 0.396 0 0.299-0.19 0.426-0.545 0.426h-0.338v2e-3zm-0.534 0.436h0.934c0.679 0 1.022-0.412 1.022-0.863 0-0.34-0.207-0.619-0.548-0.705v-0.01c0.231-0.115 0.356-0.35 0.356-0.6 0-0.379-0.285-0.738-0.908-0.738h-0.853v2.916h-3e-3zm-2.733-1.166 0.213-0.576c0.08-0.223 0.124-0.354 0.151-0.453h9e-3c0.027 0.096 0.064 0.23 0.145 0.449l0.204 0.58h-0.722zm-0.981 1.166h0.555l0.275-0.731h1.04l0.284 0.73h0.576l-1.175-2.932h-0.423l-1.132 2.933z" fill="#038C3D"/>
</svg>
