<svg width="1189" height="284" viewBox="0 0 1189 284" fill="none" xmlns="http://www.w3.org/2000/svg">
<path d="M253.306 222.995L295.446 0H338.518L323.385 80.3012C339.449 65.2808 356.678 57.7706 374.837 57.7706C394.627 57.7706 409.644 64.9342 420.004 79.1457C430.248 93.3573 432.925 113.808 427.92 140.498C422.681 168.112 412.088 189.372 396.024 204.277C379.959 219.182 362.498 226.576 343.64 226.576C334.327 226.576 325.596 224.266 317.448 219.644C309.299 215.022 302.78 208.205 297.891 199.193L293.351 222.879H253.423L253.306 222.995ZM311.976 138.765C308.833 155.518 309.183 167.881 312.908 175.854C318.262 187.177 327.11 192.838 339.449 192.838C348.878 192.838 357.842 188.794 365.99 180.706C374.255 172.619 379.959 159.909 383.219 142.578C386.711 124.091 385.78 110.804 380.658 102.601C375.536 94.3972 367.62 90.3532 357.027 90.3532C346.434 90.3532 337.354 94.3972 329.089 102.254C320.707 110.226 315.003 122.358 311.976 138.534M30.4992 61.4679H70.1947L66.004 83.4208C83.4653 66.3207 101.974 57.7706 121.648 57.7706C132.008 57.7706 140.739 59.8504 147.49 64.1254C154.358 68.4004 159.48 74.8707 162.74 83.4208C171.471 74.8707 180.434 68.4004 189.514 64.1254C198.594 59.8504 207.79 57.7706 217.219 57.7706C229.093 57.7706 238.871 60.197 246.205 65.0497C253.539 69.9024 258.428 76.9505 260.756 86.1938C262.503 93.1262 261.804 104.218 258.894 119.701L239.337 222.995H196.266L213.727 130.677C216.754 114.617 217.219 104.218 215.124 99.5965C212.33 93.4729 206.743 90.4688 198.478 90.4688C192.424 90.4688 186.371 92.3174 180.434 96.0148C174.497 99.7121 169.608 105.027 165.999 112.075C162.274 119.123 159.015 130.215 156.105 145.466L141.437 222.995H98.3657L115.129 134.49C118.155 118.776 119.203 108.609 118.621 104.103C117.922 99.481 116.176 96.1303 113.382 93.935C110.589 91.7397 106.398 90.5843 100.927 90.5843C94.2914 90.5843 88.0053 92.433 82.0684 95.8992C76.1316 99.481 71.2424 104.565 67.7501 111.266C64.1414 117.968 60.9984 129.06 57.9717 144.542L43.1878 222.995H0L30.4992 61.4679Z" fill="#575757"/>
<path d="M788.09 61.4677H827.785L823.594 83.4205C841.056 66.3204 859.565 57.7703 879.238 57.7703C889.598 57.7703 898.329 59.9656 905.081 64.1251C911.949 68.4001 917.071 74.8704 920.33 83.4205C929.061 74.7549 938.025 68.4001 947.105 64.1251C956.184 59.8501 965.381 57.7703 974.81 57.7703C986.684 57.7703 996.462 60.1967 1003.8 65.0494C1011.13 69.7866 1016.02 76.9502 1018.35 86.1935C1019.98 93.1259 1019.39 104.218 1016.48 119.7L996.928 222.994H953.856L971.318 130.677C974.344 114.617 974.81 104.333 972.715 99.5963C969.921 93.5881 964.333 90.4685 956.068 90.4685C950.015 90.4685 943.962 92.3172 938.025 96.0145C932.088 99.7118 927.199 105.027 923.59 112.075C919.865 119.123 916.605 130.215 913.695 145.466L899.028 223.11H855.956L872.719 134.605C875.746 118.892 876.793 108.724 876.211 104.218C875.513 99.5963 873.767 96.2456 870.973 94.0503C868.179 91.855 863.988 90.6996 858.517 90.6996C851.882 90.6996 845.596 92.4327 839.659 96.0145C833.606 99.5963 828.833 104.68 825.341 111.381C821.732 118.083 818.472 129.175 815.562 144.657L800.778 223.225H757.707L788.206 61.6987L788.09 61.4677ZM1042.79 61.0055H1082.95L1081.91 66.667C1081.32 69.7866 1080.74 72.7907 1080.16 75.9103L1078.53 84.807C1082.02 80.532 1086.1 76.7191 1090.4 73.2529C1092.85 71.2887 1094.94 70.0177 1097.51 68.2846C1099.37 67.1292 1101.35 65.9738 1103.33 65.0494C1113.22 59.9656 1123.58 57.4237 1134.41 57.4237C1141.04 57.4237 1147.21 58.348 1152.92 60.1967L1158.15 62.1609C1166.07 65.8582 1172.94 71.6353 1178.41 79.3765C1188.89 94.0503 1191.56 114.617 1186.56 140.844C1181.44 167.766 1170.84 188.794 1154.78 203.699C1138.71 218.604 1121.14 226.114 1102.28 226.114C1093.31 226.114 1085.4 224.381 1078.76 220.799C1072.13 217.217 1065.61 211.094 1059.21 202.544L1043.84 284H1000.77L1042.91 60.8899L1042.79 61.0055ZM1070.61 138.996C1067.24 157.136 1068.29 170.539 1073.87 179.204C1079.46 187.87 1087.49 192.26 1097.97 192.26C1108.45 192.26 1117.06 188.216 1125.21 180.36C1133.36 172.387 1139.18 159.331 1142.56 141.191C1145.81 124.207 1144.65 111.613 1139.41 103.409C1134.06 95.2057 1126.37 91.1617 1116.25 91.1617C1106.12 91.1617 1096.22 95.2057 1087.73 103.294C1079.23 111.381 1073.52 123.282 1070.5 139.111M593.919 141.653C596.597 127.442 602.766 113.692 612.312 100.405C621.857 87.1178 633.848 76.9502 648.049 70.0177C662.251 62.9697 677.385 59.5035 693.333 59.5035C717.895 59.5035 736.637 67.4758 749.325 83.3049C762.014 99.1341 766.088 119.238 761.548 143.502C756.892 167.881 745.135 188.216 726.276 204.277C707.302 220.337 685.766 228.309 661.669 228.309C646.769 228.309 633.149 224.958 620.926 218.257C608.587 211.556 600.205 201.735 595.549 188.794C591.009 175.853 590.427 160.14 593.919 141.538M637.689 143.964C634.662 160.024 636.176 172.272 642.229 180.822C648.282 189.372 656.897 193.647 668.188 193.647C679.48 193.647 689.724 189.372 698.804 180.822C708.117 172.272 714.17 159.909 717.313 143.733C720.34 127.904 718.826 115.772 712.773 107.222C706.836 98.6719 698.222 94.3969 686.93 94.3969C675.638 94.3969 665.394 98.6719 656.198 107.222C646.885 115.772 640.716 128.019 637.689 144.08M594.501 110.919L550.615 118.545C550.848 110.111 548.753 103.756 544.445 99.4807C540.138 95.2057 534.085 93.126 525.936 93.126C515.11 93.126 505.914 96.8233 498.115 104.102C490.315 111.497 484.844 123.744 481.584 141.076C477.976 160.255 478.674 173.774 483.68 181.631C488.685 189.487 496.601 193.416 507.544 193.416C515.809 193.416 522.793 191.105 528.963 186.483C535.016 181.862 540.255 173.889 544.445 162.682L585.421 169.845C577.389 189.141 566.214 203.699 551.896 213.52C537.577 223.341 520 228.309 498.929 228.309C475.182 228.309 457.604 220.915 446.196 206.01C434.788 191.105 431.645 170.423 436.651 144.08C441.656 117.39 452.715 96.7077 469.711 81.8029C486.706 66.8981 507.311 59.5035 531.524 59.5035C551.314 59.5035 566.33 63.7785 576.458 72.213C586.469 80.6475 592.522 93.5881 594.385 110.919" fill="#0097D8"/>
</svg>
