<svg xmlns="http://www.w3.org/2000/svg" width="103" height="33" fill="none"><g clip-path="url(#a)" style="mix-blend-mode:luminosity"><path fill="#4285F4" d="M13.26 11.668v3.418h8.238c-.219 1.891-.875 3.346-1.896 4.291-1.166 1.164-3.062 2.473-6.343 2.473-5.03 0-8.968-4.073-8.968-9.09 0-5.02 3.864-9.092 8.968-9.092 2.698 0 4.74 1.091 6.197 2.473l2.406-2.4C19.821 1.777 17.05.25 13.26.25 6.333.25.5 5.85.5 12.76c0 6.908 5.833 12.508 12.76 12.508 3.717 0 6.56-1.236 8.748-3.49 2.26-2.255 2.99-5.455 2.99-8 0-.8-.073-1.528-.146-2.11z"/><path fill="#EA4335" d="M35.205 8.832c-4.448 0-8.166 3.418-8.166 8.073 0 4.654 3.645 8.072 8.166 8.072 4.52 0 8.166-3.345 8.166-8 0-4.727-3.646-8.145-8.166-8.145m0 13.018c-2.48 0-4.593-2.036-4.593-4.873 0-2.909 2.114-4.872 4.593-4.872s4.593 1.963 4.593 4.872c0 2.837-2.114 4.873-4.593 4.873"/><path fill="#4285F4" d="M75.086 10.65h-.146c-.802-.945-2.333-1.818-4.301-1.818-4.083 0-7.583 3.49-7.583 8.073 0 4.509 3.5 8.072 7.583 8.072 1.968 0 3.5-.872 4.301-1.818h.146v1.164c0 3.054-1.677 4.727-4.302 4.727-2.187 0-3.5-1.527-4.082-2.91l-3.063 1.31c.875 2.11 3.281 4.8 7.218 4.8 4.156 0 7.729-2.473 7.729-8.436V9.268h-3.354v1.382zm-4.083 11.2c-2.479 0-4.301-2.11-4.301-4.873 0-2.836 1.895-4.872 4.301-4.872s4.302 2.109 4.302 4.945c.073 2.764-1.823 4.8-4.302 4.8"/><path fill="#FBBC05" d="M53.36 8.832c-4.448 0-8.167 3.418-8.167 8.073 0 4.654 3.646 8.072 8.166 8.072s8.166-3.345 8.166-8c0-4.727-3.645-8.145-8.166-8.145m0 13.018c-2.48 0-4.594-2.036-4.594-4.873 0-2.909 2.114-4.872 4.593-4.872s4.593 1.963 4.593 4.872c0 2.837-2.114 4.873-4.593 4.873"/><path fill="#34A853" d="M81.283.614h3.5V25.05h-3.5z"/><path fill="#EA4335" d="M95.574 21.85c-1.823 0-3.063-.8-3.937-2.473l10.863-4.436-.365-.946c-.656-1.818-2.77-5.163-6.926-5.163s-7.655 3.273-7.655 8.073c0 4.509 3.426 8.072 8.02 8.072 3.718 0 5.832-2.254 6.78-3.563l-2.77-1.819c-.948 1.382-2.188 2.255-4.01 2.255m-.22-9.964c1.46 0 2.698.728 3.063 1.746l-7.29 3.054c-.074-3.345 2.405-4.8 4.228-4.8"/></g><defs><clipPath id="a"><path fill="#fff" d="M.5.25h102v32H.5z"/></clipPath></defs></svg>